<?xml version="1.0" encoding="utf-8"?>
<!-- Generator: Adobe Illustrator 19.0.0, SVG Export Plug-In . SVG Version: 6.00 Build 0)  -->
<svg version="1.0" id="Layer_1" xmlns="http://www.w3.org/2000/svg" xmlns:xlink="http://www.w3.org/1999/xlink" x="0px" y="0px"
	 viewBox="0 0 612 792" style="enable-background:new 0 0 612 792;" xml:space="preserve">
<style type="text/css">
	.st0{fill:none;}
	.st1{fill:#6200A2;}
	.st2{fill:#7200E7;}
	.st3{fill:#7400A2;}
	.st4{fill:#0015E7;}
	.st5{fill:#FFFFFF;}
</style>
<rect id="XMLID_1_" y="58" class="st0" width="612" height="786.5"/>
<g id="XMLID_7_">
	<g id="XMLID_3_">
		<polygon class="st1" points="165.8,266.4 165.8,569.3 96.5,569.3 96.5,140.1 		"/>
	</g>
	<g id="XMLID_4_">
		<line id="XMLID_29_" class="st0" x1="282.8" y1="479.3" x2="282.7" y2="479.3"/>
		<polygon class="st2" points="282.7,331.1 242.1,405.2 165.8,266.4 96.5,140.1 177.9,140.1 		"/>
		<line id="XMLID_31_" class="st0" x1="323.4" y1="405.2" x2="323.4" y2="405.2"/>
	</g>
</g>
<g id="XMLID_13_">
	<polygon class="st3" points="469,140.1 469,569.3 399.7,569.3 399.7,266.4 	"/>
</g>
<g id="XMLID_10_">
	<line id="XMLID_30_" class="st0" x1="282.8" y1="479.3" x2="282.8" y2="479.3"/>
	<line id="XMLID_25_" class="st0" x1="323.4" y1="405.2" x2="323.4" y2="405.2"/>
</g>
<polygon class="st4" points="469,140.1 399.7,266.4 323.4,405.2 242.1,405.2 282.7,331.1 387.6,140.1 "/>
<line id="XMLID_24_" class="st0" x1="282.8" y1="479.3" x2="282.7" y2="479.3"/>
<line id="XMLID_9_" class="st0" x1="328.4" y1="405.2" x2="323.4" y2="405.2"/>
<polygon id="XMLID_2_" class="st5" points="602.2,389.2 625.2,389.2 625.2,389.2 "/>
</svg>
